<svg width="48" height="48" viewBox="0 0 48 48" fill="none" xmlns="http://www.w3.org/2000/svg">
<path d="M24 4.875C20.2174 4.875 16.5198 5.99666 13.3747 8.09814C10.2296 10.1996 7.77834 13.1865 6.33081 16.6812C4.88329 20.1758 4.50455 24.0212 5.24249 27.7311C5.98043 31.441 7.80191 34.8487 10.4766 37.5234C13.1513 40.1981 16.559 42.0196 20.2689 42.7575C23.9788 43.4955 27.8242 43.1167 31.3188 41.6692C34.8135 40.2217 37.8004 37.7704 39.9019 34.6253C42.0033 31.4802 43.125 27.7826 43.125 24C43.1191 18.9296 41.1022 14.0685 37.5168 10.4832C33.9315 6.89782 29.0704 4.88095 24 4.875ZM24 40.875C20.6624 40.875 17.3998 39.8853 14.6248 38.031C11.8497 36.1768 9.68677 33.5413 8.40954 30.4578C7.13231 27.3743 6.79813 23.9813 7.44926 20.7079C8.10038 17.4344 9.70757 14.4276 12.0676 12.0676C14.4276 9.70756 17.4344 8.10037 20.7079 7.44925C23.9813 6.79812 27.3743 7.1323 30.4578 8.40953C33.5413 9.68676 36.1768 11.8497 38.0311 14.6248C39.8853 17.3998 40.875 20.6624 40.875 24C40.87 28.474 39.0906 32.7633 35.927 35.9269C32.7634 39.0905 28.474 40.87 24 40.875ZM24 13.125C21.1168 13.1285 18.3528 14.2753 16.3141 16.3141C14.2754 18.3528 13.1285 21.1168 13.125 24C13.125 24.2984 13.0065 24.5845 12.7955 24.7955C12.5845 25.0065 12.2984 25.125 12 25.125C11.7016 25.125 11.4155 25.0065 11.2045 24.7955C10.9935 24.5845 10.875 24.2984 10.875 24C10.879 20.5203 12.2631 17.1842 14.7236 14.7236C17.1842 12.2631 20.5203 10.879 24 10.875C24.2984 10.875 24.5845 10.9935 24.7955 11.2045C25.0065 11.4155 25.125 11.7016 25.125 12C25.125 12.2984 25.0065 12.5845 24.7955 12.7955C24.5845 13.0065 24.2984 13.125 24 13.125ZM37.125 24C37.121 27.4797 35.737 30.8158 33.2764 33.2764C30.8158 35.7369 27.4798 37.121 24 37.125C23.7016 37.125 23.4155 37.0065 23.2045 36.7955C22.9935 36.5845 22.875 36.2984 22.875 36C22.875 35.7016 22.9935 35.4155 23.2045 35.2045C23.4155 34.9935 23.7016 34.875 24 34.875C26.8832 34.8715 29.6473 33.7247 31.686 31.6859C33.7247 29.6472 34.8715 26.8832 34.875 24C34.875 23.7016 34.9935 23.4155 35.2045 23.2045C35.4155 22.9935 35.7016 22.875 36 22.875C36.2984 22.875 36.5845 22.9935 36.7955 23.2045C37.0065 23.4155 37.125 23.7016 37.125 24ZM29.625 24C29.625 22.8875 29.2951 21.7999 28.677 20.8749C28.0589 19.9499 27.1804 19.2289 26.1526 18.8032C25.1248 18.3774 23.9938 18.266 22.9026 18.4831C21.8115 18.7001 20.8092 19.2359 20.0225 20.0225C19.2359 20.8092 18.7001 21.8115 18.4831 22.9026C18.266 23.9938 18.3774 25.1248 18.8032 26.1526C19.2289 27.1804 19.9499 28.0589 20.8749 28.677C21.8 29.2951 22.8875 29.625 24 29.625C25.4919 29.625 26.9226 29.0324 27.9775 27.9775C29.0324 26.9226 29.625 25.4918 29.625 24ZM20.625 24C20.625 23.3325 20.8229 22.68 21.1938 22.125C21.5646 21.5699 22.0918 21.1374 22.7085 20.8819C23.3252 20.6265 24.0038 20.5596 24.6584 20.6898C25.3131 20.8201 25.9145 21.1415 26.3865 21.6135C26.8585 22.0855 27.1799 22.6869 27.3102 23.3416C27.4404 23.9963 27.3735 24.6749 27.1181 25.2916C26.8627 25.9083 26.4301 26.4354 25.8751 26.8062C25.32 27.1771 24.6675 27.375 24 27.375C23.1049 27.375 22.2465 27.0194 21.6135 26.3865C20.9806 25.7535 20.625 24.8951 20.625 24Z" fill="black"/>
</svg>
